<svg width="18.000000" height="18.000000" viewBox="0 0 18 18" fill="none" xmlns="http://www.w3.org/2000/svg" xmlns:xlink="http://www.w3.org/1999/xlink">
	<desc>
			Created with Pixso.
	</desc>
	<defs>
		<clipPath id="clip11_99">
			<rect id="close 1" width="18.000000" height="18.000000" fill="white" fill-opacity="0"/>
		</clipPath>
	</defs>
	<rect id="close 1" width="18.000000" height="18.000000" fill="#FFFFFF" fill-opacity="0"/>
	<g clip-path="url(#clip11_99)">
		<path id="Vector" d="M17.25 8.25C16.836 8.25 16.5 8.586 16.5 9C16.5 13.1355 13.1355 16.5 9 16.5C4.8645 16.5 1.5 13.1355 1.5 9C1.5 4.8645 4.8645 1.5 9 1.5C11.0134 1.5 12.9034 2.28674 14.322 3.7155C14.6137 4.00912 15.0889 4.011 15.3825 3.71925C15.6765 3.42751 15.678 2.95238 15.3863 2.65837C13.6841 0.944244 11.4157 0 9 0C4.03726 0 0 4.03725 0 9C0 13.9627 4.03726 18 9 18C13.9624 18 18 13.9627 18 9C18 8.586 17.664 8.25 17.25 8.25Z" fill="#4793FF" fill-opacity="1.000000" fill-rule="nonzero"/>
		<path id="Vector" d="M10.0605 9L11.7803 7.28024C12.0732 6.98737 12.0732 6.51263 11.7803 6.21976C11.4874 5.92688 11.0126 5.92688 10.7198 6.21976L9.00003 7.93951L7.28027 6.21976C6.98776 5.92688 6.51227 5.92688 6.21979 6.21976C5.92691 6.51263 5.92691 6.98737 6.21979 7.28024L7.93951 9L6.21979 10.7198C5.92691 11.0126 5.92691 11.4874 6.21979 11.7802C6.36603 11.9269 6.55801 12 6.75003 12C6.94202 12 7.13403 11.9269 7.28027 11.7802L9.00003 10.0605L10.7198 11.7802C10.8664 11.9269 11.058 12 11.25 12C11.442 12 11.6336 11.9269 11.7803 11.7802C12.0732 11.4874 12.0732 11.0126 11.7803 10.7198L10.0605 9Z" fill="#4793FF" fill-opacity="1.000000" fill-rule="nonzero"/>
	</g>
</svg>
