<svg width="13.944534" height="25.000000" viewBox="0 0 13.9445 25" fill="none" xmlns="http://www.w3.org/2000/svg" xmlns:xlink="http://www.w3.org/1999/xlink">
	<desc>
			Created with Pixso.
	</desc>
	<defs/>
	<path id="Vector" d="M9.87752 2.98157L13.5776 2.98157C13.7799 2.98157 13.9438 2.8176 13.9438 2.61534C13.9438 2.41309 13.7799 2.24911 13.5776 2.24911L9.87752 2.24911C9.67522 2.24911 9.51129 2.41309 9.51129 2.61534C9.51129 2.8176 9.67526 2.98157 9.87752 2.98157Z" fill="#4F667A" fill-opacity="1.000000" fill-rule="nonzero"/>
	<path id="Vector" d="M9.87752 4.67249L11.7275 4.67249C11.9298 4.67249 12.0938 4.50851 12.0938 4.30626C12.0938 4.104 11.9298 3.94003 11.7275 3.94003L9.87752 3.94003C9.67522 3.94003 9.51129 4.104 9.51129 4.30626C9.51129 4.50851 9.67526 4.67249 9.87752 4.67249Z" fill="#4F667A" fill-opacity="1.000000" fill-rule="nonzero"/>
	<path id="Vector" d="M13.5783 5.64909L9.87825 5.64909C9.67595 5.64909 9.51202 5.81306 9.51202 6.01532C9.51202 6.21756 9.67595 6.38153 9.87825 6.38153L13.5783 6.38153C13.7806 6.38153 13.9445 6.21756 13.9445 6.01532C13.9445 5.81306 13.7806 5.64909 13.5783 5.64909Z" fill="#4F667A" fill-opacity="1.000000" fill-rule="nonzero"/>
	<path id="Vector" d="M9.87752 8.07248L11.7275 8.07248C11.9298 8.07248 12.0938 7.90851 12.0938 7.70625C12.0938 7.504 11.9298 7.34003 11.7275 7.34003L9.87752 7.34003C9.67522 7.34003 9.51129 7.504 9.51129 7.70625C9.51129 7.90851 9.67526 8.07248 9.87752 8.07248Z" fill="#4F667A" fill-opacity="1.000000" fill-rule="nonzero"/>
	<path id="Vector" d="M13.5783 9.02393L9.87825 9.02393C9.67595 9.02393 9.51202 9.1879 9.51202 9.39015C9.51202 9.59241 9.67595 9.75638 9.87825 9.75638L13.5783 9.75638C13.7806 9.75638 13.9445 9.59241 13.9445 9.39015C13.9445 9.1879 13.7806 9.02393 13.5783 9.02393Z" fill="#4F667A" fill-opacity="1.000000" fill-rule="nonzero"/>
	<path id="Vector" d="M9.87752 11.4473L11.7275 11.4473C11.9298 11.4473 12.0938 11.2834 12.0938 11.0811C12.0938 10.8788 11.9298 10.7149 11.7275 10.7149L9.87752 10.7149C9.67522 10.7149 9.51129 10.8788 9.51129 11.0811C9.51129 11.2834 9.67526 11.4473 9.87752 11.4473Z" fill="#4F667A" fill-opacity="1.000000" fill-rule="nonzero"/>
	<path id="Vector" d="M13.5783 12.4306L9.87825 12.4306C9.67595 12.4306 9.51202 12.5946 9.51202 12.7968C9.51202 12.9991 9.67595 13.1631 9.87825 13.1631L13.5783 13.1631C13.7806 13.1631 13.9445 12.9991 13.9445 12.7968C13.9445 12.5946 13.7806 12.4306 13.5783 12.4306Z" fill="#4F667A" fill-opacity="1.000000" fill-rule="nonzero"/>
	<path id="Vector" d="M11.7275 14.1215L9.87752 14.1215C9.67522 14.1215 9.51129 14.2855 9.51129 14.4878C9.51129 14.69 9.67522 14.854 9.87752 14.854L11.7275 14.854C11.9298 14.854 12.0938 14.69 12.0938 14.4878C12.0938 14.2855 11.9298 14.1215 11.7275 14.1215Z" fill="#4F667A" fill-opacity="1.000000" fill-rule="nonzero"/>
	<path id="Vector" d="M10.4267 19.7869C10.4267 21.1932 9.87492 22.5111 8.87391 23.499C7.89047 24.4687 6.59354 25 5.2141 25C5.18919 25 5.16428 25 5.13938 24.9995C4.91867 24.9961 4.7004 24.9795 4.48457 24.9487C3.38199 24.7935 2.35753 24.2876 1.54939 23.4872C0.583534 22.5312 0.0337067 21.2616 0.0014801 19.9134C-0.0419769 18.0862 0.874565 16.3737 2.40588 15.3937L2.40588 2.80772C2.40588 1.51276 3.28677 0.419937 4.48116 0.097168C4.71456 0.0336914 4.96017 0 5.21361 0C6.76152 0 8.02133 1.25932 8.02133 2.80772L8.02133 15.3937C9.51016 16.3478 10.4267 18.0114 10.4267 19.7869Z" fill="#E9F5FF" fill-opacity="1.000000" fill-rule="nonzero"/>
	<path id="Vector" d="M10.4267 19.7869C10.4267 21.1932 9.87493 22.5111 8.87392 23.499C7.89048 24.4687 6.59356 25 5.2141 25C4.30148 25 3.74921 25 3.74921 25C3.99726 25 4.24288 24.9829 4.48459 24.9487C5.58521 24.7944 6.60284 24.2944 7.40902 23.499C8.41052 22.5111 8.96181 21.1932 8.96181 19.7869C8.96181 18.0114 8.04527 17.8215 6.55644 16.8674L6.55644 2.80772C6.55644 1.51276 5.67506 0.419937 4.48117 0.097168C4.71458 0.0336914 4.96019 0 5.21362 0C6.76153 0 8.02135 1.25932 8.02135 2.80772L8.02135 15.3937C9.51017 16.3478 10.4267 18.0114 10.4267 19.7869Z" fill="#CDEAF7" fill-opacity="1.000000" fill-rule="nonzero"/>
	<path id="Vector" d="M8.96178 19.7942C8.96178 20.805 8.56528 21.7528 7.84504 22.4628C7.13847 23.1601 6.20386 23.5424 5.21017 23.5424C5.19308 23.5424 5.17648 23.5424 5.15987 23.5419C4.97237 23.5395 4.78682 23.5224 4.60419 23.4926C3.84489 23.3671 3.14076 23.0087 2.58019 22.4535C1.88485 21.7655 1.48885 20.8533 1.46589 19.886C1.43366 18.5202 2.14658 17.2438 3.32631 16.5544C3.66177 16.3585 3.87077 15.9948 3.87077 15.6061L3.87077 2.81503C3.87077 2.29451 4.16863 1.84186 4.60322 1.61919C4.78633 1.52495 4.99386 1.47221 5.21359 1.47221C5.95385 1.47221 6.55592 2.07478 6.55592 2.81503L6.55592 15.6061C6.55592 15.9948 6.76492 16.3585 7.10038 16.5544C8.24837 17.2253 8.96178 18.4665 8.96178 19.7942Z" fill="#FF6E6E" fill-opacity="1.000000" fill-rule="nonzero"/>
	<path id="Vector" d="M8.96184 19.7942C8.96184 20.805 8.56534 21.7528 7.84509 22.4628C7.13852 23.1601 6.20392 23.5424 5.21023 23.5424C5.19314 23.5424 5.17654 23.5424 5.15993 23.5419C4.97243 23.5395 4.78687 23.5224 4.60425 23.4926C5.36453 23.3686 6.06573 23.0141 6.62434 22.4628C7.34459 21.7528 7.74108 20.805 7.74108 19.7942C7.74108 18.4665 7.02768 17.2253 5.87968 16.5544C5.54423 16.3585 5.33524 15.9948 5.33524 15.6061L5.33524 2.81503C5.33524 2.29451 5.03737 1.84235 4.60327 1.61919C4.78638 1.52495 4.99391 1.47221 5.21365 1.47221C5.95391 1.47221 6.55598 2.07478 6.55598 2.81503L6.55598 15.6061C6.55598 15.9948 6.76498 16.3585 7.10043 16.5544C8.24843 17.2253 8.96184 18.4665 8.96184 19.7942Z" fill="#F44E92" fill-opacity="1.000000" fill-rule="nonzero"/>
	<path id="Vector" d="M6.55595 2.81503L6.55595 6.01537L3.87079 6.01537L3.87079 2.81503C3.87079 2.29451 4.16866 1.84186 4.60324 1.61919C4.78635 1.52495 4.99388 1.47221 5.21362 1.47221C5.95388 1.47221 6.55595 2.07478 6.55595 2.81503Z" fill="#4F667A" fill-opacity="1.000000" fill-rule="nonzero"/>
	<path id="Vector" d="M6.55599 2.81503L6.55599 6.01537L5.33524 6.01537L5.33524 2.81503C5.33524 2.29451 5.03737 1.84235 4.60327 1.61919C4.78638 1.52495 4.99391 1.47221 5.21365 1.47221C5.95392 1.47221 6.55599 2.07478 6.55599 2.81503Z" fill="#3A5366" fill-opacity="1.000000" fill-rule="nonzero"/>
</svg>
