<svg width="48.000000" height="48.000000" viewBox="0 0 48 48" fill="none" xmlns="http://www.w3.org/2000/svg" xmlns:xlink="http://www.w3.org/1999/xlink">
	<desc>
			Created with Pixso.
	</desc>
	<defs>
		<clipPath id="clip2_550">
			<rect id="mainly_cloudy" width="48.000000" height="48.000000" fill="white" fill-opacity="0"/>
		</clipPath>
		<linearGradient id="paint_linear_2_553_0" x1="22.000002" y1="16.000000" x2="22.000002" y2="38.000000" gradientUnits="userSpaceOnUse">
			<stop stop-color="#9FC7FF"/>
			<stop offset="1.000000" stop-color="#9BC1F5"/>
		</linearGradient>
		<radialGradient id="paint_radial_2_554_0" cx="0.000000" cy="0.000000" r="1.000000" gradientUnits="userSpaceOnUse" gradientTransform="translate(17.9439 -22.6966) rotate(-90) scale(20.9574 6.69705)">
			<stop stop-color="#486DA8" stop-opacity="0.400000"/>
			<stop offset="1.000000" stop-color="#486DA8" stop-opacity="0.000000"/>
		</radialGradient>
	</defs>
	<rect id="mainly_cloudy" width="48.000000" height="48.000000" fill="#FFFFFF" fill-opacity="0"/>
	<g clip-path="url(#clip2_550)">
		<g opacity="0.320000">
			<path id="Vector" d="M38 28C41.314 28 44 25.314 44 22C44 18.686 41.314 16 38 16L37.938 16C37.978 15.672 38 15.338 38 15C38 10.582 34.418 7 30 7C26.5 7 23.524 9.24799 22.44 12.378C21.67 12.132 20.852 12 20 12C15.582 12 12 15.582 12 20C12 24.418 15.582 28 20 28C20.69 28 21.36 27.912 22 27.748L22 28L38 28Z" fill="#73A5E6" fill-opacity="1.000000" fill-rule="nonzero"/>
		</g>
		<path id="Vector" d="M12 38C7.58197 38 4 34.418 4 30C4 25.582 7.58197 22 12 22C12.834 22 13.636 22.128 14.392 22.364C15.518 18.68 18.946 16 23 16C27.97 16 32 20.03 32 25C32 25.47 31.964 25.93 31.894 26.38C32.55 26.134 33.258 26 34 26C37.314 26 40 28.686 40 32C40 35.314 37.314 38 34 38L12 38Z" fill="url(#paint_linear_2_553_0)" fill-opacity="1.000000" fill-rule="nonzero"/>
		<path id="Vector" d="M14 25C14 29.97 18.03 34 23 34C27.502 34 31.23 30.696 31.894 26.38C32.55 26.134 33.258 26 34 26C37.314 26 40 28.686 40 32C40 35.314 37.314 38 34 38L12 38C7.58197 38 4 34.418 4 30C4 25.582 7.58197 22 12 22C12.834 22 13.636 22.128 14.392 22.364C14.136 23.198 14 24.082 14 25Z" fill="url(#paint_radial_2_554_0)" fill-opacity="1.000000" fill-rule="nonzero"/>
	</g>
</svg>
