<svg width="48.000000" height="48.000000" viewBox="0 0 48 48" fill="none" xmlns="http://www.w3.org/2000/svg" xmlns:xlink="http://www.w3.org/1999/xlink">
	<desc>
			Created with Pixso.
	</desc>
	<defs>
		<clipPath id="clip2_530">
			<rect id="small_rain_sun" width="48.000000" height="48.000000" fill="white" fill-opacity="0"/>
		</clipPath>
		<linearGradient id="paint_linear_2_532_0" x1="40.000000" y1="7.999997" x2="28.783199" y2="19.072319" gradientUnits="userSpaceOnUse">
			<stop stop-color="#FFB301"/>
			<stop offset="1.000000" stop-color="#FFC533"/>
		</linearGradient>
		<linearGradient id="paint_linear_2_535_0" x1="21.999998" y1="12.000000" x2="21.999998" y2="34.000000" gradientUnits="userSpaceOnUse">
			<stop stop-color="#9FC7FF"/>
			<stop offset="1.000000" stop-color="#9BC1F5"/>
		</linearGradient>
		<radialGradient id="paint_radial_2_536_0" cx="0.000000" cy="0.000000" r="1.000000" gradientUnits="userSpaceOnUse" gradientTransform="translate(15.0679 -22.6966) rotate(-90) scale(20.9574 6.69705)">
			<stop stop-color="#486DA8" stop-opacity="0.400000"/>
			<stop offset="1.000000" stop-color="#486DA8" stop-opacity="0.000000"/>
		</radialGradient>
	</defs>
	<rect id="small_rain_sun" width="48.000000" height="48.000000" fill="#FFFFFF" fill-opacity="0"/>
	<g clip-path="url(#clip2_530)">
		<path id="Vector" d="M40 16C40 20.4183 36.4183 24 32 24C27.5817 24 24 20.4183 24 16C24 11.5817 27.5817 8 32 8C36.4183 8 40 11.5817 40 16Z" fill="url(#paint_linear_2_532_0)" fill-opacity="1.000000" fill-rule="evenodd"/>
		<path id="Vector" d="M30.96 1.45996L31.48 4.414C31.8281 6.38397 28.872 6.90399 28.5261 4.93396L28.006 1.97998C27.658 0.0100098 30.614 -0.51001 30.96 1.45996ZM41.546 4.98199L39.826 7.44C38.678 9.078 36.222 7.35797 37.368 5.71997L39.088 3.26196C40.236 1.62396 42.692 3.34399 41.546 4.98199ZM20.984 6.45398L23.442 8.17401C25.08 9.32196 23.36 11.778 21.722 10.632L19.264 8.91199C17.626 7.76398 19.346 5.30798 20.984 6.45398ZM42.282 21.366L44.7401 23.086C46.3781 24.234 44.658 26.69 43.02 25.544L40.562 23.824C38.924 22.676 40.644 20.22 42.282 21.366ZM46.5421 14.958L43.588 15.478C41.618 15.826 41.098 12.87 43.0681 12.524L46.022 12.004C47.9921 11.656 48.512 14.612 46.5421 14.958Z" fill="#FFB300" fill-opacity="1.000000" fill-rule="nonzero"/>
		<path id="Vector" d="M14.218 38.926L12.118 43.924C11.798 44.6879 12.156 45.5679 12.92 45.8879C13.684 46.2079 14.564 45.85 14.884 45.0859L16.984 40.088C17.304 39.324 16.946 38.444 16.182 38.124C15.418 37.804 14.538 38.162 14.218 38.926ZM24.218 36.926L22.118 41.924C21.798 42.688 22.156 43.5679 22.92 43.8879C23.684 44.2079 24.564 43.85 24.884 43.0859L26.984 38.088C27.304 37.324 26.946 36.444 26.182 36.124C25.418 35.804 24.538 36.162 24.218 36.926Z" fill="#66AFEB" fill-opacity="1.000000" fill-rule="nonzero"/>
		<path id="Vector" d="M12 34C7.58197 34 4 30.418 4 26C4 21.582 7.58197 18 12 18C12.834 18 13.636 18.128 14.392 18.364C15.518 14.68 18.946 12 23 12C27.97 12 32 16.03 32 21C32 21.47 31.964 21.93 31.894 22.38C32.55 22.134 33.258 22 34 22C37.314 22 40 24.686 40 28C40 31.314 37.314 34 34 34L12 34Z" fill="url(#paint_linear_2_535_0)" fill-opacity="1.000000" fill-rule="nonzero"/>
		<path id="Vector" d="M14 21C14 25.97 18.03 30 23 30C27.502 30 31.23 26.696 31.894 22.38C32.55 22.134 33.258 22 34 22C37.314 22 40 24.686 40 28C40 31.314 37.314 34 34 34L12 34C7.58197 34 4 30.418 4 26C4 21.582 7.58197 18 12 18C12.834 18 13.636 18.128 14.392 18.364C14.136 19.198 14 20.082 14 21Z" fill="url(#paint_radial_2_536_0)" fill-opacity="1.000000" fill-rule="nonzero"/>
	</g>
</svg>
