<svg width="38" height="38" viewBox="0 0 38 38" fill="none" xmlns="http://www.w3.org/2000/svg">
<circle cx="19" cy="19" r="19" fill="white"/>
<g clip-path="url(#clip0_13901_3)">
<path d="M22.4056 8.98157H26.1057C26.308 8.98157 26.4719 8.81759 26.4719 8.61534C26.4719 8.41309 26.308 8.24911 26.1057 8.24911H22.4056C22.2033 8.24911 22.0394 8.41309 22.0394 8.61534C22.0394 8.81759 22.2034 8.98157 22.4056 8.98157Z" fill="#4F667A"/>
<path d="M22.4056 10.6725H24.2556C24.4579 10.6725 24.6219 10.5085 24.6219 10.3063C24.6219 10.104 24.4579 9.94005 24.2556 9.94005H22.4056C22.2033 9.94005 22.0394 10.104 22.0394 10.3063C22.0394 10.5085 22.2034 10.6725 22.4056 10.6725Z" fill="#4F667A"/>
<path d="M26.1064 11.6491H22.4063C22.204 11.6491 22.0401 11.8131 22.0401 12.0153C22.0401 12.2176 22.204 12.3816 22.4063 12.3816H26.1064C26.3087 12.3816 26.4726 12.2176 26.4726 12.0153C26.4726 11.8131 26.3086 11.6491 26.1064 11.6491Z" fill="#4F667A"/>
<path d="M22.4056 14.0725H24.2556C24.4579 14.0725 24.6219 13.9085 24.6219 13.7063C24.6219 13.504 24.4579 13.34 24.2556 13.34H22.4056C22.2033 13.34 22.0394 13.504 22.0394 13.7063C22.0394 13.9085 22.2034 14.0725 22.4056 14.0725Z" fill="#4F667A"/>
<path d="M26.1064 15.0239H22.4063C22.204 15.0239 22.0401 15.1879 22.0401 15.3902C22.0401 15.5924 22.204 15.7564 22.4063 15.7564H26.1064C26.3087 15.7564 26.4726 15.5924 26.4726 15.3902C26.4726 15.1879 26.3086 15.0239 26.1064 15.0239Z" fill="#4F667A"/>
<path d="M22.4056 17.4473H24.2556C24.4579 17.4473 24.6219 17.2834 24.6219 17.0811C24.6219 16.8788 24.4579 16.7149 24.2556 16.7149H22.4056C22.2033 16.7149 22.0394 16.8788 22.0394 17.0811C22.0394 17.2834 22.2034 17.4473 22.4056 17.4473Z" fill="#4F667A"/>
<path d="M26.1064 18.4306H22.4063C22.204 18.4306 22.0401 18.5946 22.0401 18.7968C22.0401 18.9991 22.204 19.1631 22.4063 19.1631H26.1064C26.3087 19.1631 26.4726 18.9991 26.4726 18.7968C26.4726 18.5946 26.3086 18.4306 26.1064 18.4306Z" fill="#4F667A"/>
<path d="M24.2556 20.1216H22.4056C22.2033 20.1216 22.0394 20.2855 22.0394 20.4878C22.0394 20.69 22.2033 20.854 22.4056 20.854H24.2556C24.4579 20.854 24.6219 20.69 24.6219 20.4878C24.6219 20.2855 24.4579 20.1216 24.2556 20.1216Z" fill="#4F667A"/>
<path d="M22.9548 25.7869C22.9548 27.1932 22.403 28.5111 21.402 29.499C20.4186 30.4687 19.1216 31 17.7422 31C17.7173 31 17.6924 31 17.6675 30.9995C17.4468 30.9961 17.2285 30.9795 17.0127 30.9487C15.9101 30.7935 14.8856 30.2876 14.0775 29.4872C13.1116 28.5312 12.5618 27.2616 12.5296 25.9134C12.4861 24.0862 13.4027 22.3737 14.934 21.3937V8.80773C14.934 7.51275 15.8149 6.41994 17.0093 6.09717C17.2427 6.03369 17.4883 6 17.7417 6C19.2896 6 20.5494 7.25933 20.5494 8.80773V21.3937C22.0383 22.3478 22.9548 24.0114 22.9548 25.7869Z" fill="#E9F5FF"/>
<path d="M22.9548 25.7869C22.9548 27.1932 22.403 28.5111 21.402 29.499C20.4185 30.4687 19.1216 31 17.7422 31C16.8295 31 16.2773 31 16.2773 31C16.5253 31 16.7709 30.9829 17.0126 30.9487C18.1133 30.7944 19.1309 30.2944 19.9371 29.499C20.9386 28.5111 21.4899 27.1932 21.4899 25.7869C21.4899 24.0114 20.5733 23.8215 19.0845 22.8674V8.80773C19.0845 7.51275 18.2031 6.41994 17.0092 6.09717C17.2426 6.03369 17.4882 6 17.7417 6C19.2896 6 20.5494 7.25933 20.5494 8.80773V21.3937C22.0382 22.3478 22.9548 24.0114 22.9548 25.7869Z" fill="#CDEAF7"/>
<path d="M21.4899 25.7942C21.4899 26.805 21.0934 27.7528 20.3731 28.4628C19.6666 29.1601 18.732 29.5424 17.7383 29.5424C17.7212 29.5424 17.7046 29.5424 17.688 29.5419C17.5005 29.5395 17.3149 29.5224 17.1323 29.4926C16.373 29.3671 15.6689 29.0087 15.1083 28.4535C14.413 27.7655 14.0169 26.8533 13.994 25.886C13.9618 24.5202 14.6747 23.2438 15.8544 22.5543C16.1899 22.3585 16.3989 21.9948 16.3989 21.6061V8.81504C16.3989 8.29451 16.6967 7.84186 17.1313 7.61919C17.3144 7.52495 17.522 7.47221 17.7417 7.47221C18.482 7.47221 19.084 8.07478 19.084 8.81504V21.6061C19.084 21.9948 19.293 22.3585 19.6285 22.5543C20.7765 23.2253 21.4899 24.4665 21.4899 25.7942Z" fill="#FF6E6E"/>
<path d="M21.4899 25.7942C21.4899 26.805 21.0934 27.7528 20.3731 28.4628C19.6666 29.1601 18.732 29.5424 17.7383 29.5424C17.7212 29.5424 17.7046 29.5424 17.688 29.5419C17.5005 29.5395 17.3149 29.5224 17.1323 29.4926C17.8926 29.3686 18.5938 29.0141 19.1524 28.4628C19.8726 27.7528 20.2691 26.805 20.2691 25.7942C20.2691 24.4665 19.5557 23.2253 18.4077 22.5543C18.0723 22.3585 17.8633 21.9948 17.8633 21.6061V8.81504C17.8633 8.29451 17.5654 7.84235 17.1313 7.61919C17.3144 7.52495 17.522 7.47221 17.7417 7.47221C18.482 7.47221 19.084 8.07478 19.084 8.81504V21.6061C19.084 21.9948 19.293 22.3585 19.6285 22.5543C20.7765 23.2253 21.4899 24.4665 21.4899 25.7942Z" fill="#F44E92"/>
<path d="M19.084 8.81504V12.0154H16.3989V8.81504C16.3989 8.29451 16.6967 7.84186 17.1313 7.61919C17.3144 7.52495 17.5219 7.47221 17.7417 7.47221C18.4819 7.47221 19.084 8.07478 19.084 8.81504Z" fill="#4F667A"/>
<path d="M19.084 8.81504V12.0154H17.8633V8.81504C17.8633 8.29451 17.5654 7.84235 17.1313 7.61919C17.3144 7.52495 17.522 7.47221 17.7417 7.47221C18.482 7.47221 19.084 8.07478 19.084 8.81504Z" fill="#3A5366"/>
</g>
<defs>
<clipPath id="clip0_13901_3">
<rect width="25" height="25" fill="white" transform="translate(7 6)"/>
</clipPath>
</defs>
</svg>
